<mxfile>
    <diagram id="QGpWbO32GmOyKtEZxNbD" name="Page-1">
        <mxGraphModel dx="2726" dy="907" grid="1" gridSize="10" guides="1" tooltips="1" connect="1" arrows="1" fold="1" page="1" pageScale="1" pageWidth="827" pageHeight="1169" math="0" shadow="0">
            <root>
                <mxCell id="0"/>
                <mxCell id="1" parent="0"/>
                <mxCell id="44" value="uc- TRAMPO" style="shape=umlFrame;whiteSpace=wrap;html=1;" parent="1" vertex="1">
                    <mxGeometry x="-170" y="60" width="950" height="1830" as="geometry"/>
                </mxCell>
                <mxCell id="45" value="" style="rounded=0;whiteSpace=wrap;html=1;fillColor=#FFFFFF;" parent="1" vertex="1">
                    <mxGeometry x="-170" y="60" width="950" height="1830" as="geometry"/>
                </mxCell>
                <mxCell id="3" value="" style="rounded=0;whiteSpace=wrap;html=1;" parent="1" vertex="1">
                    <mxGeometry x="-30" y="120" width="680" height="790" as="geometry"/>
                </mxCell>
                <mxCell id="Qo0r1xUQOBNxPAJiFL_n-1" value="Consumidr/Prestador" style="shape=umlActor;verticalLabelPosition=bottom;verticalAlign=top;html=1;outlineConnect=0;" parent="1" vertex="1">
                    <mxGeometry x="-120" y="235" width="30" height="60" as="geometry"/>
                </mxCell>
                <mxCell id="Qo0r1xUQOBNxPAJiFL_n-4" value="UC-01&lt;br&gt;Criar conta" style="ellipse;whiteSpace=wrap;html=1;fillColor=#fff2cc;strokeColor=#d6b656;" parent="1" vertex="1">
                    <mxGeometry x="20" y="120" width="140" height="70" as="geometry"/>
                </mxCell>
                <mxCell id="Qo0r1xUQOBNxPAJiFL_n-8" value="" style="html=1;verticalAlign=bottom;endArrow=block;" parent="1" source="Qo0r1xUQOBNxPAJiFL_n-1" target="Qo0r1xUQOBNxPAJiFL_n-4" edge="1">
                    <mxGeometry width="80" relative="1" as="geometry">
                        <mxPoint x="120" y="270" as="sourcePoint"/>
                        <mxPoint x="270" y="290" as="targetPoint"/>
                    </mxGeometry>
                </mxCell>
                <mxCell id="Qo0r1xUQOBNxPAJiFL_n-11" value="UC-02&lt;br&gt;Logar" style="ellipse;whiteSpace=wrap;html=1;fillColor=#fff2cc;strokeColor=#d6b656;" parent="1" vertex="1">
                    <mxGeometry x="30" y="430" width="140" height="70" as="geometry"/>
                </mxCell>
                <mxCell id="Qo0r1xUQOBNxPAJiFL_n-12" value="" style="html=1;verticalAlign=bottom;endArrow=block;" parent="1" source="Qo0r1xUQOBNxPAJiFL_n-1" target="Qo0r1xUQOBNxPAJiFL_n-11" edge="1">
                    <mxGeometry width="80" relative="1" as="geometry">
                        <mxPoint x="140" y="415" as="sourcePoint"/>
                        <mxPoint x="220" y="415" as="targetPoint"/>
                    </mxGeometry>
                </mxCell>
                <mxCell id="Qo0r1xUQOBNxPAJiFL_n-14" value="UC-12&lt;br&gt;Cadastrar um Trabalho" style="ellipse;whiteSpace=wrap;html=1;fillColor=#fff2cc;strokeColor=#d6b656;" parent="1" vertex="1">
                    <mxGeometry x="-20" y="560" width="140" height="70" as="geometry"/>
                </mxCell>
                <mxCell id="Qo0r1xUQOBNxPAJiFL_n-15" value="UC-11&lt;br&gt;Candidatar-se&lt;br&gt;a Vaga" style="ellipse;whiteSpace=wrap;html=1;fillColor=#fff2cc;strokeColor=#d6b656;" parent="1" vertex="1">
                    <mxGeometry x="380" y="610" width="140" height="70" as="geometry"/>
                </mxCell>
                <mxCell id="Qo0r1xUQOBNxPAJiFL_n-18" value="UC-15&lt;br&gt;Avaliar Prestador/&lt;br&gt;Avaliar Consumidor" style="ellipse;whiteSpace=wrap;html=1;fillColor=#fff2cc;strokeColor=#d6b656;" parent="1" vertex="1">
                    <mxGeometry x="450" y="790" width="140" height="70" as="geometry"/>
                </mxCell>
                <mxCell id="Qo0r1xUQOBNxPAJiFL_n-21" value="Sistema" style="shape=umlActor;verticalLabelPosition=bottom;verticalAlign=top;html=1;" parent="1" vertex="1">
                    <mxGeometry x="700" y="235" width="30" height="60" as="geometry"/>
                </mxCell>
                <mxCell id="Qo0r1xUQOBNxPAJiFL_n-26" value="UC-09&lt;br&gt;Atualizar Dados&lt;br&gt;Pessoais" style="ellipse;whiteSpace=wrap;html=1;fillColor=#fff2cc;strokeColor=#d6b656;" parent="1" vertex="1">
                    <mxGeometry x="344" y="470" width="140" height="70" as="geometry"/>
                </mxCell>
                <mxCell id="Qo0r1xUQOBNxPAJiFL_n-35" value="UC-07&lt;br&gt;Filtro de busca" style="ellipse;whiteSpace=wrap;html=1;fillColor=#fff2cc;strokeColor=#d6b656;" parent="1" vertex="1">
                    <mxGeometry x="430" y="140" width="140" height="70" as="geometry"/>
                </mxCell>
                <mxCell id="Qo0r1xUQOBNxPAJiFL_n-36" value="" style="html=1;verticalAlign=bottom;endArrow=block;" parent="1" source="Qo0r1xUQOBNxPAJiFL_n-21" target="Qo0r1xUQOBNxPAJiFL_n-35" edge="1">
                    <mxGeometry width="80" relative="1" as="geometry">
                        <mxPoint x="670" y="500" as="sourcePoint"/>
                        <mxPoint x="750" y="500" as="targetPoint"/>
                    </mxGeometry>
                </mxCell>
                <mxCell id="Qo0r1xUQOBNxPAJiFL_n-37" value="UC-08&lt;br&gt;Email de autenticação" style="ellipse;whiteSpace=wrap;html=1;fillColor=#fff2cc;strokeColor=#d6b656;" parent="1" vertex="1">
                    <mxGeometry x="430" y="280" width="140" height="70" as="geometry"/>
                </mxCell>
                <mxCell id="Qo0r1xUQOBNxPAJiFL_n-38" value="" style="html=1;verticalAlign=bottom;endArrow=block;" parent="1" source="Qo0r1xUQOBNxPAJiFL_n-21" target="Qo0r1xUQOBNxPAJiFL_n-37" edge="1">
                    <mxGeometry width="80" relative="1" as="geometry">
                        <mxPoint x="760" y="430" as="sourcePoint"/>
                        <mxPoint x="810" y="480" as="targetPoint"/>
                    </mxGeometry>
                </mxCell>
                <mxCell id="Qo0r1xUQOBNxPAJiFL_n-39" value="UC-05&lt;br&gt;Históricos" style="ellipse;whiteSpace=wrap;html=1;fillColor=#fff2cc;strokeColor=#d6b656;" parent="1" vertex="1">
                    <mxGeometry x="220" y="530" width="140" height="70" as="geometry"/>
                </mxCell>
                <mxCell id="23" value="&lt;font style=&quot;font-size: 14px&quot;&gt;UC-02&lt;br&gt;&lt;br&gt;Login para acessar o sistema.&lt;br&gt;&lt;br&gt;Login automatico caso ja&lt;br&gt;tenha ocorrido anteriormente.&lt;br&gt;&lt;/font&gt;" style="shape=note2;size=25;childLayout=stackLayout;horizontalStack=0;resizeParent=1;resizeParentMax=0;resizeLast=0;collapsible=0;marginBottom=0;html=1;container=1;rounded=0;glass=0;align=left;verticalAlign=top;fillColor=#d5e8d4;strokeColor=#82b366;" parent="1" vertex="1">
                    <mxGeometry x="200" y="931" width="200" height="140" as="geometry"/>
                </mxCell>
                <mxCell id="28" value="&lt;font style=&quot;font-size: 14px&quot;&gt;UC-01&lt;br&gt;&lt;/font&gt;&lt;br&gt;&lt;div&gt;&lt;span style=&quot;font-size: 14px&quot;&gt;Cadastro&amp;nbsp;&lt;/span&gt;&lt;span style=&quot;font-size: 14px&quot;&gt;e ativação da conta&lt;/span&gt;&lt;/div&gt;&lt;div&gt;&lt;span style=&quot;font-size: 14px&quot;&gt;com um&amp;nbsp;&lt;/span&gt;&lt;span style=&quot;font-size: 14px&quot;&gt;token recebido no&lt;/span&gt;&lt;/div&gt;&lt;div&gt;&lt;span style=&quot;font-size: 14px&quot;&gt;email.&lt;/span&gt;&lt;/div&gt;" style="shape=note2;size=25;childLayout=stackLayout;horizontalStack=0;resizeParent=1;resizeParentMax=0;resizeLast=0;collapsible=0;marginBottom=0;html=1;container=1;rounded=0;glass=0;align=left;verticalAlign=top;fillColor=#d5e8d4;strokeColor=#82b366;" parent="1" vertex="1">
                    <mxGeometry x="-30" y="931" width="200" height="140" as="geometry"/>
                </mxCell>
                <mxCell id="38" value="&lt;font style=&quot;font-size: 14px&quot;&gt;UC-05&lt;br&gt;&lt;br&gt;Consultar historicos de&lt;br&gt;trabalhos já&lt;br&gt;prestados/consumidos&lt;br&gt;&lt;/font&gt;" style="shape=note2;size=25;childLayout=stackLayout;horizontalStack=0;resizeParent=1;resizeParentMax=0;resizeLast=0;collapsible=0;marginBottom=0;html=1;container=1;rounded=0;glass=0;align=left;verticalAlign=top;fillColor=#d5e8d4;strokeColor=#82b366;" parent="1" vertex="1">
                    <mxGeometry x="200" y="1091" width="200" height="140" as="geometry"/>
                </mxCell>
                <mxCell id="40" value="&lt;font style=&quot;font-size: 14px&quot;&gt;UC-07&lt;br&gt;&lt;br&gt;Filtro de busca por trabalhos&lt;br&gt;feito pelo sistema ao exibir&lt;br&gt;os trabalhos.&lt;br&gt;&lt;br&gt;Opção de filtragem por área&lt;br&gt;de trabalho feito pelo usuário.&lt;br&gt;&lt;/font&gt;" style="shape=note2;size=25;childLayout=stackLayout;horizontalStack=0;resizeParent=1;resizeParentMax=0;resizeLast=0;collapsible=0;marginBottom=0;html=1;container=1;rounded=0;glass=0;align=left;verticalAlign=top;fillColor=#d5e8d4;strokeColor=#82b366;" parent="1" vertex="1">
                    <mxGeometry x="-30" y="1251" width="200" height="140" as="geometry"/>
                </mxCell>
                <mxCell id="43" value="&lt;font style=&quot;font-size: 14px&quot;&gt;UC-08&lt;br&gt;&lt;br&gt;Enviar email para autenticação&lt;br&gt;de login e/ou recuperação de&lt;br&gt;senha.&lt;br&gt;&lt;/font&gt;" style="shape=note2;size=25;childLayout=stackLayout;horizontalStack=0;resizeParent=1;resizeParentMax=0;resizeLast=0;collapsible=0;marginBottom=0;html=1;container=1;rounded=0;glass=0;align=left;verticalAlign=top;fillColor=#d5e8d4;strokeColor=#82b366;" parent="1" vertex="1">
                    <mxGeometry x="200" y="1251" width="200" height="140" as="geometry"/>
                </mxCell>
                <mxCell id="46" value="UC-13&lt;br&gt;Aceitar Candidato" style="ellipse;whiteSpace=wrap;html=1;fillColor=#fff2cc;strokeColor=#d6b656;" parent="1" vertex="1">
                    <mxGeometry x="10" y="710" width="140" height="70" as="geometry"/>
                </mxCell>
                <mxCell id="50" value="UC-14&lt;br&gt;Finalizar Trabalho" style="ellipse;whiteSpace=wrap;html=1;fillColor=#fff2cc;strokeColor=#d6b656;" parent="1" vertex="1">
                    <mxGeometry x="210" y="750" width="140" height="70" as="geometry"/>
                </mxCell>
                <mxCell id="56" value="" style="html=1;verticalAlign=bottom;endArrow=block;" parent="1" source="Qo0r1xUQOBNxPAJiFL_n-1" target="57" edge="1">
                    <mxGeometry width="80" relative="1" as="geometry">
                        <mxPoint x="-80" y="285.51948051948057" as="sourcePoint"/>
                        <mxPoint x="229.90674328348723" y="192.94993382441282" as="targetPoint"/>
                    </mxGeometry>
                </mxCell>
                <mxCell id="57" value="UC-03&lt;br&gt;Recuperar Senha" style="ellipse;whiteSpace=wrap;html=1;fillColor=#fff2cc;strokeColor=#d6b656;" parent="1" vertex="1">
                    <mxGeometry x="10" y="220" width="140" height="70" as="geometry"/>
                </mxCell>
                <mxCell id="72" value="&amp;lt;&amp;lt;include&amp;gt;&amp;gt;" style="html=1;verticalAlign=bottom;labelBackgroundColor=none;endArrow=open;endFill=0;dashed=1;" parent="1" source="50" target="Qo0r1xUQOBNxPAJiFL_n-18" edge="1">
                    <mxGeometry width="160" relative="1" as="geometry">
                        <mxPoint x="215" y="965.5300000000001" as="sourcePoint"/>
                        <mxPoint x="285" y="965.5300000000001" as="targetPoint"/>
                    </mxGeometry>
                </mxCell>
                <mxCell id="76" value="&lt;font style=&quot;font-size: 14px&quot;&gt;UC-03&lt;br&gt;&lt;br&gt;Fluxo de recuperação de&lt;br&gt;senha.&lt;br&gt;&lt;br&gt;Caso exista uma conta, podera&lt;br&gt;recuperar a senha para logar.&lt;br&gt;&lt;/font&gt;" style="shape=note2;size=25;childLayout=stackLayout;horizontalStack=0;resizeParent=1;resizeParentMax=0;resizeLast=0;collapsible=0;marginBottom=0;html=1;container=1;rounded=0;glass=0;align=left;verticalAlign=top;fillColor=#d5e8d4;strokeColor=#82b366;" parent="1" vertex="1">
                    <mxGeometry x="430" y="930" width="200" height="140" as="geometry"/>
                </mxCell>
                <mxCell id="79" value="" style="html=1;labelBackgroundColor=#ffffff;startArrow=none;startFill=0;startSize=6;endArrow=classic;endFill=1;endSize=6;jettySize=auto;orthogonalLoop=1;strokeWidth=1;dashed=1;fontSize=14;" parent="1" source="Qo0r1xUQOBNxPAJiFL_n-14" target="Qo0r1xUQOBNxPAJiFL_n-11" edge="1">
                    <mxGeometry width="60" height="60" relative="1" as="geometry">
                        <mxPoint x="119.66081666101218" y="626.0643266644049" as="sourcePoint"/>
                        <mxPoint x="201.55079389440516" y="511.6416038561653" as="targetPoint"/>
                    </mxGeometry>
                </mxCell>
                <mxCell id="80" value="&amp;lt;&amp;lt; extends &amp;gt;&amp;gt;" style="edgeLabel;html=1;align=center;verticalAlign=middle;resizable=0;points=[];" parent="79" vertex="1" connectable="0">
                    <mxGeometry x="-0.3726" y="-2" relative="1" as="geometry">
                        <mxPoint x="4.610000000000001" y="-1.5399999999999996" as="offset"/>
                    </mxGeometry>
                </mxCell>
                <mxCell id="81" value="" style="html=1;labelBackgroundColor=#ffffff;startArrow=none;startFill=0;startSize=6;endArrow=classic;endFill=1;endSize=6;jettySize=auto;orthogonalLoop=1;strokeWidth=1;dashed=1;fontSize=14;" parent="1" source="Qo0r1xUQOBNxPAJiFL_n-15" target="102" edge="1">
                    <mxGeometry width="60" height="60" relative="1" as="geometry">
                        <mxPoint x="275" y="775.5300000000001" as="sourcePoint"/>
                        <mxPoint x="292.30072399621076" y="631.3303949070242" as="targetPoint"/>
                    </mxGeometry>
                </mxCell>
                <mxCell id="82" value="&amp;lt;&amp;lt; extends &amp;gt;&amp;gt;" style="edgeLabel;html=1;align=center;verticalAlign=middle;resizable=0;points=[];" parent="81" vertex="1" connectable="0">
                    <mxGeometry x="-0.3726" y="-2" relative="1" as="geometry">
                        <mxPoint x="-12.999999999999998" y="-2.9999999999999996" as="offset"/>
                    </mxGeometry>
                </mxCell>
                <mxCell id="86" value="" style="html=1;labelBackgroundColor=#ffffff;startArrow=none;startFill=0;startSize=6;endArrow=classic;endFill=1;endSize=6;jettySize=auto;orthogonalLoop=1;strokeWidth=1;dashed=1;fontSize=14;" parent="1" source="Qo0r1xUQOBNxPAJiFL_n-39" target="Qo0r1xUQOBNxPAJiFL_n-11" edge="1">
                    <mxGeometry width="60" height="60" relative="1" as="geometry">
                        <mxPoint x="431.2241194466369" y="586.888499300778" as="sourcePoint"/>
                        <mxPoint x="248.68917564728372" y="472.34618771996657" as="targetPoint"/>
                    </mxGeometry>
                </mxCell>
                <mxCell id="87" value="&amp;lt;&amp;lt; extends &amp;gt;&amp;gt;" style="edgeLabel;html=1;align=center;verticalAlign=middle;resizable=0;points=[];" parent="86" vertex="1" connectable="0">
                    <mxGeometry x="-0.3726" y="-2" relative="1" as="geometry">
                        <mxPoint x="-10.36" y="-3.76" as="offset"/>
                    </mxGeometry>
                </mxCell>
                <mxCell id="89" value="" style="html=1;labelBackgroundColor=#ffffff;startArrow=none;startFill=0;startSize=6;endArrow=classic;endFill=1;endSize=6;jettySize=auto;orthogonalLoop=1;strokeWidth=1;dashed=1;fontSize=14;" parent="1" source="Qo0r1xUQOBNxPAJiFL_n-26" target="Qo0r1xUQOBNxPAJiFL_n-11" edge="1">
                    <mxGeometry width="60" height="60" relative="1" as="geometry">
                        <mxPoint x="85.0403247872764" y="560.8174436652807" as="sourcePoint"/>
                        <mxPoint x="125.04121848361979" y="469.1915006088684" as="targetPoint"/>
                    </mxGeometry>
                </mxCell>
                <mxCell id="90" value="&amp;lt;&amp;lt; extends &amp;gt;&amp;gt;" style="edgeLabel;html=1;align=center;verticalAlign=middle;resizable=0;points=[];" parent="89" vertex="1" connectable="0">
                    <mxGeometry x="-0.3726" y="-2" relative="1" as="geometry">
                        <mxPoint x="4.610000000000001" y="-1.5399999999999996" as="offset"/>
                    </mxGeometry>
                </mxCell>
                <mxCell id="91" value="" style="html=1;labelBackgroundColor=#ffffff;startArrow=none;startFill=0;startSize=6;endArrow=classic;endFill=1;endSize=6;jettySize=auto;orthogonalLoop=1;strokeWidth=1;dashed=1;fontSize=14;" parent="1" source="46" target="Qo0r1xUQOBNxPAJiFL_n-14" edge="1">
                    <mxGeometry width="60" height="60" relative="1" as="geometry">
                        <mxPoint x="85.0403247872764" y="682.1474436652808" as="sourcePoint"/>
                        <mxPoint x="125.04121848361979" y="590.5215006088685" as="targetPoint"/>
                    </mxGeometry>
                </mxCell>
                <mxCell id="92" value="&amp;lt;&amp;lt; extends &amp;gt;&amp;gt;" style="edgeLabel;html=1;align=center;verticalAlign=middle;resizable=0;points=[];" parent="91" vertex="1" connectable="0">
                    <mxGeometry x="-0.3726" y="-2" relative="1" as="geometry">
                        <mxPoint x="4.610000000000001" y="-1.5399999999999996" as="offset"/>
                    </mxGeometry>
                </mxCell>
                <mxCell id="93" value="UC-04&lt;br&gt;Logout" style="ellipse;whiteSpace=wrap;html=1;fillColor=#fff2cc;strokeColor=#d6b656;" parent="1" vertex="1">
                    <mxGeometry x="240" y="270" width="140" height="70" as="geometry"/>
                </mxCell>
                <mxCell id="94" value="" style="html=1;labelBackgroundColor=#ffffff;startArrow=none;startFill=0;startSize=6;endArrow=classic;endFill=1;endSize=6;jettySize=auto;orthogonalLoop=1;strokeWidth=1;dashed=1;fontSize=14;" parent="1" source="93" target="Qo0r1xUQOBNxPAJiFL_n-11" edge="1">
                    <mxGeometry width="60" height="60" relative="1" as="geometry">
                        <mxPoint x="428.3524460846884" y="532.850939697491" as="sourcePoint"/>
                        <mxPoint x="185.55743834257146" y="487.2701087806952" as="targetPoint"/>
                    </mxGeometry>
                </mxCell>
                <mxCell id="95" value="&amp;lt;&amp;lt; extends &amp;gt;&amp;gt;" style="edgeLabel;html=1;align=center;verticalAlign=middle;resizable=0;points=[];" parent="94" vertex="1" connectable="0">
                    <mxGeometry x="-0.3726" y="-2" relative="1" as="geometry">
                        <mxPoint x="-10.36" y="-3.76" as="offset"/>
                    </mxGeometry>
                </mxCell>
                <mxCell id="96" value="&lt;font style=&quot;font-size: 14px&quot;&gt;UC-04&lt;br&gt;&lt;br&gt;Realiza o logout da aplicação.&lt;br&gt;&lt;/font&gt;" style="shape=note2;size=25;childLayout=stackLayout;horizontalStack=0;resizeParent=1;resizeParentMax=0;resizeLast=0;collapsible=0;marginBottom=0;html=1;container=1;rounded=0;glass=0;align=left;verticalAlign=top;fillColor=#d5e8d4;strokeColor=#82b366;" parent="1" vertex="1">
                    <mxGeometry x="-30" y="1090" width="200" height="140" as="geometry"/>
                </mxCell>
                <mxCell id="97" value="UC-06&lt;br&gt;Consultar&lt;br&gt;Trabalhos" style="ellipse;whiteSpace=wrap;html=1;fillColor=#fff2cc;strokeColor=#d6b656;" parent="1" vertex="1">
                    <mxGeometry x="190" y="180" width="140" height="70" as="geometry"/>
                </mxCell>
                <mxCell id="98" value="" style="html=1;labelBackgroundColor=#ffffff;startArrow=none;startFill=0;startSize=6;endArrow=classic;endFill=1;endSize=6;jettySize=auto;orthogonalLoop=1;strokeWidth=1;dashed=1;fontSize=14;" parent="1" source="97" target="Qo0r1xUQOBNxPAJiFL_n-11" edge="1">
                    <mxGeometry width="60" height="60" relative="1" as="geometry">
                        <mxPoint x="400.39485596137274" y="458.71227434872685" as="sourcePoint"/>
                        <mxPoint x="169.59449332961367" y="471.2381354956965" as="targetPoint"/>
                    </mxGeometry>
                </mxCell>
                <mxCell id="99" value="&amp;lt;&amp;lt; extends &amp;gt;&amp;gt;" style="edgeLabel;html=1;align=center;verticalAlign=middle;resizable=0;points=[];" parent="98" vertex="1" connectable="0">
                    <mxGeometry x="-0.3726" y="-2" relative="1" as="geometry">
                        <mxPoint x="-13.299999999999999" y="6.84" as="offset"/>
                    </mxGeometry>
                </mxCell>
                <mxCell id="100" value="" style="html=1;labelBackgroundColor=#ffffff;startArrow=none;startFill=0;startSize=6;endArrow=classic;endFill=1;endSize=6;jettySize=auto;orthogonalLoop=1;strokeWidth=1;dashed=1;fontSize=14;" parent="1" source="Qo0r1xUQOBNxPAJiFL_n-35" target="97" edge="1">
                    <mxGeometry width="60" height="60" relative="1" as="geometry">
                        <mxPoint x="181.03379389891734" y="386.8628267111908" as="sourcePoint"/>
                        <mxPoint x="129.16582973452705" y="443.18273119869764" as="targetPoint"/>
                    </mxGeometry>
                </mxCell>
                <mxCell id="101" value="&amp;lt;&amp;lt; extends &amp;gt;&amp;gt;" style="edgeLabel;html=1;align=center;verticalAlign=middle;resizable=0;points=[];" parent="100" vertex="1" connectable="0">
                    <mxGeometry x="-0.3726" y="-2" relative="1" as="geometry">
                        <mxPoint x="-13.299999999999999" y="6.84" as="offset"/>
                    </mxGeometry>
                </mxCell>
                <mxCell id="102" value="UC-10&lt;br&gt;Ver Detalhes&lt;br&gt;do Trabalho&lt;br&gt;Publicado" style="ellipse;whiteSpace=wrap;html=1;fillColor=#fff2cc;strokeColor=#d6b656;" parent="1" vertex="1">
                    <mxGeometry x="134" y="600" width="140" height="70" as="geometry"/>
                </mxCell>
                <mxCell id="103" value="" style="html=1;labelBackgroundColor=#ffffff;startArrow=none;startFill=0;startSize=6;endArrow=classic;endFill=1;endSize=6;jettySize=auto;orthogonalLoop=1;strokeWidth=1;dashed=1;fontSize=14;" parent="1" source="102" target="Qo0r1xUQOBNxPAJiFL_n-11" edge="1">
                    <mxGeometry width="60" height="60" relative="1" as="geometry">
                        <mxPoint x="153.02250624745648" y="368.95498750508705" as="sourcePoint"/>
                        <mxPoint x="116.97749375254352" y="441.04501249491295" as="targetPoint"/>
                    </mxGeometry>
                </mxCell>
                <mxCell id="104" value="&amp;lt;&amp;lt; extends &amp;gt;&amp;gt;" style="edgeLabel;html=1;align=center;verticalAlign=middle;resizable=0;points=[];" parent="103" vertex="1" connectable="0">
                    <mxGeometry x="-0.3726" y="-2" relative="1" as="geometry">
                        <mxPoint x="-13.299999999999999" y="6.84" as="offset"/>
                    </mxGeometry>
                </mxCell>
                <mxCell id="105" value="&lt;font style=&quot;font-size: 14px&quot;&gt;UC-06&lt;br&gt;&lt;br&gt;Exibir detalhes de um&lt;br&gt;trabalho publicado por outro&lt;br&gt;usuario.&lt;br&gt;&lt;/font&gt;" style="shape=note2;size=25;childLayout=stackLayout;horizontalStack=0;resizeParent=1;resizeParentMax=0;resizeLast=0;collapsible=0;marginBottom=0;html=1;container=1;rounded=0;glass=0;align=left;verticalAlign=top;fillColor=#d5e8d4;strokeColor=#82b366;" parent="1" vertex="1">
                    <mxGeometry x="430" y="1091" width="200" height="140" as="geometry"/>
                </mxCell>
                <mxCell id="106" value="&lt;font style=&quot;font-size: 14px&quot;&gt;UC-11&lt;br&gt;&lt;br&gt;Cadidatar-se a um trabalho.&lt;br&gt;&lt;/font&gt;" style="shape=note2;size=25;childLayout=stackLayout;horizontalStack=0;resizeParent=1;resizeParentMax=0;resizeLast=0;collapsible=0;marginBottom=0;html=1;container=1;rounded=0;glass=0;align=left;verticalAlign=top;fillColor=#d5e8d4;strokeColor=#82b366;" parent="1" vertex="1">
                    <mxGeometry x="200" y="1410" width="200" height="141" as="geometry"/>
                </mxCell>
                <mxCell id="108" value="&lt;font style=&quot;font-size: 14px&quot;&gt;UC-09&lt;br&gt;&lt;br&gt;Atualizar dados pessoais, com&lt;br&gt;exceção do CPF.&lt;br&gt;&lt;br&gt;Cadastrar novos endereços.&lt;br&gt;&lt;/font&gt;" style="shape=note2;size=25;childLayout=stackLayout;horizontalStack=0;resizeParent=1;resizeParentMax=0;resizeLast=0;collapsible=0;marginBottom=0;html=1;container=1;rounded=0;glass=0;align=left;verticalAlign=top;fillColor=#d5e8d4;strokeColor=#82b366;" parent="1" vertex="1">
                    <mxGeometry x="430" y="1251" width="200" height="140" as="geometry"/>
                </mxCell>
                <mxCell id="118" value="&lt;font style=&quot;font-size: 14px&quot;&gt;UC-10&lt;br&gt;&lt;br&gt;Pode ver informações de um&lt;br&gt;trabalho já publicado.&lt;br&gt;&lt;/font&gt;" style="shape=note2;size=25;childLayout=stackLayout;horizontalStack=0;resizeParent=1;resizeParentMax=0;resizeLast=0;collapsible=0;marginBottom=0;html=1;container=1;rounded=0;glass=0;align=left;verticalAlign=top;fillColor=#d5e8d4;strokeColor=#82b366;" parent="1" vertex="1">
                    <mxGeometry x="-30" y="1410" width="200" height="141" as="geometry"/>
                </mxCell>
                <mxCell id="119" value="&lt;font style=&quot;font-size: 14px&quot;&gt;UC-12&lt;br&gt;&lt;br&gt;Cadastro de um novo trabalho.&lt;br&gt;&lt;/font&gt;" style="shape=note2;size=25;childLayout=stackLayout;horizontalStack=0;resizeParent=1;resizeParentMax=0;resizeLast=0;collapsible=0;marginBottom=0;html=1;container=1;rounded=0;glass=0;align=left;verticalAlign=top;fillColor=#d5e8d4;strokeColor=#82b366;" parent="1" vertex="1">
                    <mxGeometry x="430" y="1410" width="200" height="141" as="geometry"/>
                </mxCell>
                <mxCell id="120" value="&lt;font style=&quot;font-size: 14px&quot;&gt;UC-13&lt;br&gt;&lt;br&gt;Aceitar possível candidato&lt;br&gt;a vaga de trabalho publicada.&lt;br&gt;&lt;/font&gt;" style="shape=note2;size=25;childLayout=stackLayout;horizontalStack=0;resizeParent=1;resizeParentMax=0;resizeLast=0;collapsible=0;marginBottom=0;html=1;container=1;rounded=0;glass=0;align=left;verticalAlign=top;fillColor=#d5e8d4;strokeColor=#82b366;" parent="1" vertex="1">
                    <mxGeometry x="-30" y="1570" width="200" height="141" as="geometry"/>
                </mxCell>
                <mxCell id="122" value="&lt;font style=&quot;font-size: 14px&quot;&gt;UC-14&lt;br&gt;&lt;br&gt;Finalizar um trabalho caso&lt;br&gt;ambos estejam em&lt;br&gt;consentimento&lt;br&gt;&lt;/font&gt;" style="shape=note2;size=25;childLayout=stackLayout;horizontalStack=0;resizeParent=1;resizeParentMax=0;resizeLast=0;collapsible=0;marginBottom=0;html=1;container=1;rounded=0;glass=0;align=left;verticalAlign=top;fillColor=#d5e8d4;strokeColor=#82b366;" parent="1" vertex="1">
                    <mxGeometry x="205" y="1570" width="200" height="141" as="geometry"/>
                </mxCell>
                <mxCell id="123" value="&lt;font style=&quot;font-size: 14px&quot;&gt;UC-15&lt;br&gt;&lt;br&gt;Ambos devem se avaliar&lt;br&gt;pós termino do trabalho.&lt;br&gt;&lt;/font&gt;" style="shape=note2;size=25;childLayout=stackLayout;horizontalStack=0;resizeParent=1;resizeParentMax=0;resizeLast=0;collapsible=0;marginBottom=0;html=1;container=1;rounded=0;glass=0;align=left;verticalAlign=top;fillColor=#d5e8d4;strokeColor=#82b366;" parent="1" vertex="1">
                    <mxGeometry x="430" y="1570" width="200" height="141" as="geometry"/>
                </mxCell>
                <mxCell id="124" value="&amp;lt;&amp;lt;include&amp;gt;&amp;gt;" style="html=1;verticalAlign=bottom;labelBackgroundColor=none;endArrow=open;endFill=0;dashed=1;" parent="1" source="46" target="50" edge="1">
                    <mxGeometry width="160" relative="1" as="geometry">
                        <mxPoint x="356.5977995021849" y="805.7788346015097" as="sourcePoint"/>
                        <mxPoint x="463.5921691364606" y="823.9320281894102" as="targetPoint"/>
                    </mxGeometry>
                </mxCell>
                <mxCell id="125" value="&amp;lt;&amp;lt;include&amp;gt;&amp;gt;" style="html=1;verticalAlign=bottom;labelBackgroundColor=none;endArrow=open;endFill=0;dashed=1;" parent="1" source="Qo0r1xUQOBNxPAJiFL_n-15" target="50" edge="1">
                    <mxGeometry width="160" relative="1" as="geometry">
                        <mxPoint x="356.5977995021849" y="805.7788346015097" as="sourcePoint"/>
                        <mxPoint x="463.5921691364606" y="823.9320281894102" as="targetPoint"/>
                    </mxGeometry>
                </mxCell>
                <mxCell id="126" value="UC-16&lt;br&gt;Ver notificações" style="ellipse;whiteSpace=wrap;html=1;fillColor=#fff2cc;strokeColor=#d6b656;" vertex="1" parent="1">
                    <mxGeometry x="290" y="360" width="140" height="70" as="geometry"/>
                </mxCell>
                <mxCell id="127" value="" style="html=1;labelBackgroundColor=#ffffff;startArrow=none;startFill=0;startSize=6;endArrow=classic;endFill=1;endSize=6;jettySize=auto;orthogonalLoop=1;strokeWidth=1;dashed=1;fontSize=14;exitX=0;exitY=0.5;exitDx=0;exitDy=0;" edge="1" parent="1" source="126" target="Qo0r1xUQOBNxPAJiFL_n-11">
                    <mxGeometry width="60" height="60" relative="1" as="geometry">
                        <mxPoint x="281.5351079716347" y="344.2423155771198" as="sourcePoint"/>
                        <mxPoint x="148.40595090408033" y="445.7383231207009" as="targetPoint"/>
                    </mxGeometry>
                </mxCell>
                <mxCell id="128" value="&amp;lt;&amp;lt; extends &amp;gt;&amp;gt;" style="edgeLabel;html=1;align=center;verticalAlign=middle;resizable=0;points=[];" vertex="1" connectable="0" parent="127">
                    <mxGeometry x="-0.3726" y="-2" relative="1" as="geometry">
                        <mxPoint x="-10.36" y="-3.76" as="offset"/>
                    </mxGeometry>
                </mxCell>
                <mxCell id="129" value="&lt;font style=&quot;font-size: 14px&quot;&gt;UC-16&lt;br&gt;&lt;br&gt;Receber, e navegar entre as&lt;br&gt;notificações para determinadas&lt;br&gt;telas&lt;br&gt;&lt;/font&gt;" style="shape=note2;size=25;childLayout=stackLayout;horizontalStack=0;resizeParent=1;resizeParentMax=0;resizeLast=0;collapsible=0;marginBottom=0;html=1;container=1;rounded=0;glass=0;align=left;verticalAlign=top;fillColor=#d5e8d4;strokeColor=#82b366;" vertex="1" parent="1">
                    <mxGeometry x="-30" y="1730" width="200" height="141" as="geometry"/>
                </mxCell>
            </root>
        </mxGraphModel>
    </diagram>
</mxfile>